<svg width="100" height="100" viewBox="0 0 100 100" fill="none" xmlns="http://www.w3.org/2000/svg">
<g clip-path="url(#clip0_1363_2140)">
<path d="M16.8438 7.37891L10.1055 31.793C11.0169 32.7044 12.1562 33.1602 13.5234 33.1602L23.0938 15.1914C28.6927 14.0195 36.5703 13.4336 46.7266 13.4336H59.7148L8.44531 90.582C9.03125 92.4701 9.91016 93.8047 11.082 94.5859C22.4102 94.1953 34.0638 94 46.043 94C50.0794 94 53.5951 93.7721 56.5898 93.3164C59.5846 92.8607 63.2305 91.7539 67.5273 89.9961C71.8893 88.2383 75.6979 85.1784 78.9531 80.8164C82.2083 76.3893 84.7148 70.7904 86.4727 64.0195C85.431 63.4987 84.2917 63.2383 83.0547 63.2383C80.5156 67.7305 78.4974 71.0508 77 73.1992C75.5677 75.3477 73.582 77.6914 71.043 80.2305C68.569 82.7695 65.7695 84.5273 62.6445 85.5039C59.5846 86.4805 55.9388 86.9688 51.707 86.9688H27.293L77.6836 10.9922C77.6836 9.82031 77.0977 8.61589 75.9258 7.37891C67.2018 7.89974 57.5339 8.16016 46.9219 8.16016C36.375 8.16016 26.349 7.89974 16.8438 7.37891ZM16.0625 37.1641C14.7604 37.1641 12.9049 36.6758 10.4961 35.6992C8.08724 34.7227 6.49219 33.8112 5.71094 32.9648L13.9141 3.17969C37.3516 4.41667 61.7982 4.48177 87.2539 3.375C90.0534 6.17448 91.4531 9.16927 91.4531 12.3594L44.6758 82.9648H51.707C55.418 82.9648 58.6732 82.4766 61.4727 81.5C64.2721 80.5234 66.8438 78.7982 69.1875 76.3242C71.5312 73.8503 73.4193 71.5065 74.8516 69.293C76.349 67.0794 78.3672 63.7266 80.9062 59.2344C84.2266 59.2344 87.612 60.0807 91.0625 61.7734L83.6406 98.7852C59.1615 98.2643 45.7174 98.0039 43.3086 98.0039C25.5352 98.0039 14.4023 98.1992 9.91016 98.5898C7.11068 97.0273 5.15755 94.0977 4.05078 89.8008L52.0977 17.4375C45.1315 17.8281 38.1328 19.651 31.1016 22.9062C24.1354 26.1615 19.1224 30.9141 16.0625 37.1641Z" fill="white"/>
</g>
<defs>
<clipPath id="clip0_1363_2140">
<rect width="100" height="100" fill="white"/>
</clipPath>
</defs>
</svg>
